<?xml version="1.0" encoding="UTF-8" standalone="no"?>
<!-- Created with Inkscape (http://www.inkscape.org/) -->

<svg
   width="1850"
   height="1028"
   viewBox="0 0 1850 1028"
   version="1.1"
   id="svg1"
   xml:space="preserve"
   inkscape:version="1.4 (86a8ad7, 2024-10-11)"
   sodipodi:docname="Bypass.svg"
   xmlns:inkscape="http://www.inkscape.org/namespaces/inkscape"
   xmlns:sodipodi="http://sodipodi.sourceforge.net/DTD/sodipodi-0.dtd"
   xmlns="http://www.w3.org/2000/svg"
   xmlns:svg="http://www.w3.org/2000/svg"><sodipodi:namedview
     id="namedview1"
     pagecolor="#ffffff"
     bordercolor="#000000"
     borderopacity="0.25"
     inkscape:showpageshadow="2"
     inkscape:pageopacity="0.0"
     inkscape:pagecheckerboard="0"
     inkscape:deskcolor="#d1d1d1"
     inkscape:document-units="px"
     inkscape:zoom="0.20044191"
     inkscape:cx="498.89765"
     inkscape:cy="1474.2426"
     inkscape:window-width="1723"
     inkscape:window-height="1163"
     inkscape:window-x="1972"
     inkscape:window-y="0"
     inkscape:window-maximized="0"
     inkscape:current-layer="layer1" /><defs
     id="defs1" /><g
     inkscape:label="Layer 1"
     inkscape:groupmode="layer"
     id="layer1"><path
       style="fill:none;fill-rule:evenodd;stroke:#000000;stroke-width:2.39287;stroke-linecap:butt;stroke-linejoin:miter;stroke-dasharray:4.78575, 4.78575;stroke-dashoffset:0;stroke-opacity:1"
       d="m 1186.9025,535.5026 v 34.68699"
       id="path118"
       inkscape:connector-type="polyline"
       inkscape:connector-curvature="0"
       sodipodi:nodetypes="cc" /><path
       style="fill:none;fill-rule:evenodd;stroke:#000000;stroke-width:2.39287;stroke-linecap:butt;stroke-linejoin:miter;stroke-dasharray:4.78575, 4.78575;stroke-dashoffset:0;stroke-opacity:1"
       d="m 1187.0584,573.38764 v 34.68699"
       id="path117"
       inkscape:connector-type="polyline"
       inkscape:connector-curvature="0"
       sodipodi:nodetypes="cc" /><path
       style="fill:none;fill-rule:evenodd;stroke:#000000;stroke-width:2.39287;stroke-linecap:butt;stroke-linejoin:miter;stroke-dasharray:4.78575, 4.78575;stroke-dashoffset:0;stroke-opacity:1"
       d="m 1154.2931,525.92129 v 43.5736"
       id="path116"
       inkscape:connector-type="polyline"
       inkscape:connector-curvature="0" /><path
       style="fill:none;fill-rule:evenodd;stroke:#000000;stroke-width:2.39287;stroke-linecap:butt;stroke-linejoin:miter;stroke-dasharray:4.78575, 4.78575;stroke-dashoffset:0;stroke-opacity:1"
       d="m 1154.5828,571.82902 v 36.94772"
       id="path115"
       inkscape:connector-type="polyline"
       inkscape:connector-curvature="0"
       sodipodi:nodetypes="cc" /><path
       style="fill:none;fill-rule:evenodd;stroke:#000000;stroke-width:2.39287;stroke-linecap:butt;stroke-linejoin:miter;stroke-dasharray:4.78575, 4.78575;stroke-dashoffset:0;stroke-opacity:1"
       d="m 1102.1794,469.84515 v 43.5737"
       id="path114"
       inkscape:connector-type="polyline"
       inkscape:connector-curvature="0" /><path
       style="fill:none;fill-rule:evenodd;stroke:#000000;stroke-width:2.39287;stroke-linecap:butt;stroke-linejoin:miter;stroke-dasharray:4.78574, 2.39287;stroke-dashoffset:0;stroke-opacity:1"
       d="m 814.51447,518.09448 v 32.54948"
       id="path109"
       inkscape:connector-type="polyline"
       inkscape:connector-curvature="0"
       sodipodi:nodetypes="cc" /><path
       style="fill:none;fill-rule:evenodd;stroke:#000000;stroke-width:2.39287;stroke-linecap:butt;stroke-linejoin:miter;stroke-dasharray:7.17861, 2.39287;stroke-dashoffset:0;stroke-opacity:1"
       d="m 814.59149,476.34239 v 17.39122"
       id="path108"
       inkscape:connector-type="polyline"
       inkscape:connector-curvature="0"
       sodipodi:nodetypes="cc" /><path
       style="fill:none;fill-rule:evenodd;stroke:#000000;stroke-width:2.39287;stroke-linecap:butt;stroke-linejoin:miter;stroke-dasharray:4.78575, 4.78575;stroke-dashoffset:0;stroke-opacity:1"
       d="m 703.72923,485.28604 h 43.57366"
       id="path105"
       inkscape:connector-type="polyline"
       inkscape:connector-curvature="0"
       sodipodi:nodetypes="cc" /><rect
       style="opacity:1;fill:#ffffff;fill-opacity:1;fill-rule:evenodd;stroke:#080707;stroke-width:0.408451"
       id="rect1"
       width="54.985847"
       height="8.3053799"
       x="68.64843"
       y="438.34659"
       inkscape:label="PPI_test" /><rect
       style="opacity:1;fill:#ffffff;fill-opacity:1;fill-rule:evenodd;stroke:#080707;stroke-width:0.421296"
       id="rect2"
       width="54.843975"
       height="8.0686808"
       x="69.400978"
       y="460.28906"
       inkscape:label="HELLO_test" /><rect
       style="opacity:1;fill:#ffffff;fill-opacity:1;fill-rule:evenodd;stroke:#080707;stroke-width:0.401456"
       id="rect3"
       width="55.387238"
       height="8.125886"
       x="69.540276"
       y="481.58105"
       inkscape:label="CON_wow" /><rect
       style="opacity:1;fill:#ffffff;fill-opacity:1;fill-rule:evenodd;stroke:#080707;stroke-width:0.422809"
       id="rect4"
       width="226.34294"
       height="8.1417961"
       x="124.58013"
       y="438.35376"
       inkscape:label="rect4_u" /><rect
       style="opacity:1;fill:#ffffff;fill-opacity:1;fill-rule:evenodd;stroke:#080707;stroke-width:0.422809"
       id="rect5"
       width="226.34294"
       height="8.1417961"
       x="125.10242"
       y="460.21521"
       inkscape:label="rect5_d" /><rect
       style="opacity:1;fill:#ffffff;fill-opacity:1;fill-rule:evenodd;stroke:#080707;stroke-width:0.422809"
       id="rect6"
       width="226.34294"
       height="8.1417961"
       x="125.7328"
       y="481.59744"
       inkscape:label="rect6_l" /><rect
       style="opacity:1;fill:#ffffff;fill-opacity:1;fill-rule:evenodd;stroke:#080707;stroke-width:0.408572"
       id="rect7"
       width="142.77432"
       height="8.3143272"
       x="351.99176"
       y="438.34665" /><rect
       style="opacity:1;fill:#ffffff;fill-opacity:1;fill-rule:evenodd;stroke:#080707;stroke-width:0.408565"
       id="rect8"
       width="163.17139"
       height="8.3631468"
       x="352.58868"
       y="460.20807"
       inkscape:label="rect8_r" /><rect
       style="opacity:1;fill:#ffffff;fill-opacity:1;fill-rule:evenodd;stroke:#080707;stroke-width:0.447569"
       id="rect9"
       width="217.79498"
       height="8.1170187"
       x="352.91943"
       y="481.604" /><rect
       style="opacity:1;fill:#ffffff;fill-opacity:1;fill-rule:evenodd;stroke:#080707;stroke-width:0.447569"
       id="rect10"
       width="140.71017"
       height="7.9360366"
       x="571.69812"
       y="481.56406" /><rect
       style="opacity:1;fill:#ffffff;fill-opacity:1;fill-rule:evenodd;stroke:#080707;stroke-width:0.447567"
       id="rect11"
       width="127.47753"
       height="8.2581244"
       x="774.66193"
       y="481.51129" /><rect
       style="opacity:1;fill:#ffffff;fill-opacity:1;fill-rule:evenodd;stroke:#080707;stroke-width:0.447567"
       id="rect12"
       width="239.32101"
       height="8.2581091"
       x="903.24603"
       y="481.51129" /><rect
       style="opacity:1;fill:#ffffff;fill-opacity:1;fill-rule:evenodd;stroke:#080707;stroke-width:0.408572"
       id="rect13"
       width="69.877968"
       height="8.3143578"
       x="360.22327"
       y="-511.10202"
       transform="rotate(90)" /><rect
       style="opacity:1;fill:#ffffff;fill-opacity:1;fill-rule:evenodd;stroke:#080707;stroke-width:0.408572"
       id="rect14"
       width="77.115379"
       height="7.9413509"
       x="375.44415"
       y="-530.72516"
       transform="rotate(90)" /><rect
       style="opacity:1;fill:#ffffff;fill-opacity:1;fill-rule:evenodd;stroke:#080707;stroke-width:0.408572"
       id="rect15"
       width="178.81213"
       height="8.3143301"
       x="518.52679"
       y="344.33496" /><rect
       style="opacity:1;fill:#ffffff;fill-opacity:1;fill-rule:evenodd;stroke:#080707;stroke-width:0.408572"
       id="rect16"
       width="158.74141"
       height="8.3143578"
       x="539.11987"
       y="359.77972" /><rect
       style="opacity:1;fill:#ffffff;fill-opacity:1;fill-rule:evenodd;stroke:#080707;stroke-width:0.408572"
       id="rect17"
       width="104.49815"
       height="8.3143578"
       x="698.6413"
       y="359.85437" /><rect
       style="opacity:1;fill:#ffffff;fill-opacity:1;fill-rule:evenodd;stroke:#080707;stroke-width:0.408572"
       id="rect18"
       width="10.71034"
       height="8.3143578"
       x="803.69562"
       y="359.85437" /><rect
       style="opacity:1;fill:#ffffff;fill-opacity:1;fill-rule:evenodd;stroke:#080707;stroke-width:0.408572"
       id="rect19"
       width="184.58629"
       height="8.3143578"
       x="698.32471"
       y="344.34323" /><rect
       style="opacity:1;fill:#ffffff;fill-opacity:1;fill-rule:evenodd;stroke:#080707;stroke-width:0.408572"
       id="rect20"
       width="226.92891"
       height="8.3143578"
       x="883.65948"
       y="344.33948" /><rect
       style="opacity:1;fill:#ffffff;fill-opacity:1;fill-rule:evenodd;stroke:#080707;stroke-width:0.408572"
       id="rect21"
       width="7.8271379"
       height="8.3143578"
       x="1111.2457"
       y="344.3605" /><rect
       style="opacity:1;fill:#ffffff;fill-opacity:1;fill-rule:evenodd;stroke:#080707;stroke-width:0.408572"
       id="rect22"
       width="17.745796"
       height="8.4198761"
       x="1101.2216"
       y="312.17752" /><rect
       style="opacity:1;fill:#ffffff;fill-opacity:1;fill-rule:evenodd;stroke:#080707;stroke-width:0.447567"
       id="rect23"
       width="34.753922"
       height="8.2580566"
       x="497.70425"
       y="-1158.8826"
       transform="rotate(90)" /><rect
       style="opacity:1;fill:#ffffff;fill-opacity:1;fill-rule:evenodd;stroke:#080707;stroke-width:0.447567"
       id="rect24"
       width="78.633835"
       height="8.2580566"
       x="601.77618"
       y="-1158.7177"
       transform="rotate(90)" /><rect
       style="opacity:1;fill:#ffffff;fill-opacity:1;fill-rule:evenodd;stroke:#080707;stroke-width:0.447567"
       id="rect25"
       width="246.26834"
       height="8.2581091"
       x="-1412.5746"
       y="-696.89008"
       transform="scale(-1)" /><rect
       style="opacity:1;fill:#ffffff;fill-opacity:1;fill-rule:evenodd;stroke:#080707;stroke-width:0.447567"
       id="rect26"
       width="216.27415"
       height="8.2581091"
       x="-1629.5297"
       y="-696.81903"
       transform="scale(-1)" /><rect
       style="opacity:1;fill:#ffffff;fill-opacity:1;fill-rule:evenodd;stroke:#080707;stroke-width:0.447567"
       id="rect27"
       width="7.3592405"
       height="8.2581091"
       x="-1637.7369"
       y="-696.81903"
       transform="scale(-1)" /><rect
       style="opacity:1;fill:#ffffff;fill-opacity:1;fill-rule:evenodd;stroke:#080707;stroke-width:0.401456"
       id="rect28"
       width="9.2374935"
       height="8.125906"
       x="177.72343"
       y="665.97778" /><rect
       style="opacity:1;fill:#ffffff;fill-opacity:1;fill-rule:evenodd;stroke:#080707;stroke-width:0.401456"
       id="rect29"
       width="147.5699"
       height="8.125906"
       x="188.0387"
       y="665.9469" /><rect
       style="opacity:1;fill:#ffffff;fill-opacity:1;fill-rule:evenodd;stroke:#080707;stroke-width:0.401464"
       id="rect30"
       width="188.25229"
       height="8.1260624"
       x="336.72632"
       y="665.9469" /><rect
       style="opacity:1;fill:#ffffff;fill-opacity:1;fill-rule:evenodd;stroke:#080707;stroke-width:0.408373"
       id="rect31"
       width="152.37376"
       height="8.0011053"
       x="525.83698"
       y="665.99408" /><rect
       style="opacity:1;fill:#ffffff;fill-opacity:1;fill-rule:evenodd;stroke:#080707;stroke-width:0.408373"
       id="rect32"
       width="120.45091"
       height="8.0010996"
       x="100.20033"
       y="-937.53125"
       transform="rotate(120.07504)" /><rect
       style="opacity:1;fill:#ffffff;fill-opacity:1;fill-rule:evenodd;stroke:#080707;stroke-width:0.408373"
       id="rect33"
       width="8.1307554"
       height="8.0010996"
       x="776.96967"
       y="538.84491" /><rect
       style="opacity:1;fill:#ffffff;fill-opacity:1;fill-rule:evenodd;stroke:#080707;stroke-width:0.408373"
       id="rect34"
       width="101.8307"
       height="8.0010996"
       x="785.98907"
       y="538.79456" /><rect
       style="opacity:1;fill:#ffffff;fill-opacity:1;fill-rule:evenodd;stroke:#080707;stroke-width:0.408373"
       id="rect35"
       width="210.14482"
       height="8.0010996"
       x="888.29114"
       y="538.94403" /><rect
       style="opacity:1;fill:#ffffff;fill-opacity:1;fill-rule:evenodd;stroke:#080707;stroke-width:0.408373"
       id="rect36"
       width="205.07483"
       height="8.0010996"
       x="1099.4443"
       y="538.94403" /><rect
       style="opacity:1;fill:#ffffff;fill-opacity:1;fill-rule:evenodd;stroke:#080707;stroke-width:0.408373"
       id="rect37"
       width="67.265671"
       height="8.0010996"
       x="1305.3748"
       y="538.98132" /><rect
       style="opacity:1;fill:#ffffff;fill-opacity:1;fill-rule:evenodd;stroke:#080707;stroke-width:0.408373"
       id="rect38"
       width="206.44377"
       height="8.0010996"
       x="1373.6139"
       y="539.04956" /><rect
       style="opacity:1;fill:#ffffff;fill-opacity:1;fill-rule:evenodd;stroke:#080707;stroke-width:0.408373"
       id="rect39"
       width="114.64313"
       height="8.0010996"
       x="1581.155"
       y="539.04309" /><rect
       style="opacity:1;fill:#ffffff;fill-opacity:1;fill-rule:evenodd;stroke:#080707;stroke-width:0.408373"
       id="rect40"
       width="52.95668"
       height="8.0010996"
       x="1696.5804"
       y="539.04315" /><rect
       style="opacity:1;fill:#ffffff;fill-opacity:1;fill-rule:evenodd;stroke:#080707;stroke-width:0.408373"
       id="rect41"
       width="52.95668"
       height="8.0010996"
       x="1696.3694"
       y="522.58234" /><rect
       style="opacity:1;fill:#ffffff;fill-opacity:1;fill-rule:evenodd;stroke:#080707;stroke-width:0.408373"
       id="rect42"
       width="52.95668"
       height="8.0010996"
       x="1696.6333"
       y="505.5939" /><rect
       style="opacity:1;fill:#ffffff;fill-opacity:1;fill-rule:evenodd;stroke:#080707;stroke-width:0.408373"
       id="rect43"
       width="114.62421"
       height="7.9480548"
       x="1581.1211"
       y="522.58258" /><rect
       style="opacity:1;fill:#ffffff;fill-opacity:1;fill-rule:evenodd;stroke:#080707;stroke-width:0.408373"
       id="rect44"
       width="115.16795"
       height="8.0377359"
       x="1580.903"
       y="505.58804" /><rect
       style="opacity:1;fill:#ffffff;fill-opacity:1;fill-rule:evenodd;stroke:#080707;stroke-width:0.408373"
       id="rect45"
       width="210.34515"
       height="8.0377522"
       x="1369.7781"
       y="505.67548" /><rect
       style="opacity:1;fill:#ffffff;fill-opacity:1;fill-rule:evenodd;stroke:#080707;stroke-width:0.408373"
       id="rect46"
       width="239.99564"
       height="8.0377522"
       x="1340.3386"
       y="522.45288" /><rect
       style="opacity:1;fill:#ffffff;fill-opacity:1;fill-rule:evenodd;stroke:#080707;stroke-width:0.408373"
       id="rect47"
       width="245.41383"
       height="8.0869532"
       x="253.49695"
       y="-1359.5171"
       transform="rotate(90)" /><rect
       style="opacity:1;fill:#ffffff;fill-opacity:1;fill-rule:evenodd;stroke:#080707;stroke-width:0.408373"
       id="rect48"
       width="232.80351"
       height="8.0377522"
       x="278.41837"
       y="-1332.4581"
       transform="rotate(90)" /><rect
       style="opacity:1;fill:#ffffff;fill-opacity:1;fill-rule:evenodd;stroke:#080707;stroke-width:0.408373"
       id="rect49"
       width="196.50534"
       height="8.0377522"
       x="-1344.177"
       y="-245.41589"
       transform="scale(-1)" /><rect
       style="opacity:1;fill:#ffffff;fill-opacity:1;fill-rule:evenodd;stroke:#080707;stroke-width:0.408373"
       id="rect50"
       width="205.47226"
       height="8.4045324"
       x="-1316.7423"
       y="-271.16226"
       transform="scale(-1)" /><rect
       style="opacity:1;fill:#ffffff;fill-opacity:1;fill-rule:evenodd;stroke:#080707;stroke-width:0.408373"
       id="rect51"
       width="11.42467"
       height="8.4045267"
       x="-1110.5603"
       y="-271.37329"
       transform="scale(-1)" /><rect
       style="opacity:1;fill:#ffffff;fill-opacity:1;fill-rule:evenodd;stroke:#080707;stroke-width:0.408373"
       id="rect52"
       width="125.09978"
       height="8.0377522"
       x="-1146.5231"
       y="-245.37241"
       transform="scale(-1)" /><rect
       style="opacity:1;fill:#ffffff;fill-opacity:1;fill-rule:evenodd;stroke:#080707;stroke-width:0.408373"
       id="rect53"
       width="208.14241"
       height="8.0377522"
       x="-1020.5335"
       y="-245.31966"
       transform="scale(-1)" /><rect
       style="opacity:1;fill:#ffffff;fill-opacity:1;fill-rule:evenodd;stroke:#080707;stroke-width:0.408373"
       id="rect54"
       width="10.032414"
       height="8.0641317"
       x="-811.71356"
       y="-245.31969"
       transform="scale(-1)" /><rect
       style="opacity:1;fill:#ffffff;fill-opacity:1;fill-rule:evenodd;stroke:#080707;stroke-width:0.408373"
       id="rect55"
       width="8.6606798"
       height="8.0377522"
       x="-810.76392"
       y="-269.16672"
       transform="scale(-1)" /><rect
       style="opacity:1;fill:#ffffff;fill-opacity:1;fill-rule:evenodd;stroke:#080707;stroke-width:0.401456"
       id="rect56"
       width="8.6571312"
       height="8.125906"
       x="176.3517"
       y="605.19946" /><rect
       style="opacity:1;fill:#ffffff;fill-opacity:1;fill-rule:evenodd;stroke:#080707;stroke-width:0.401456"
       id="rect57"
       width="8.4460955"
       height="8.125906"
       x="175.13824"
       y="542.73279" /><rect
       style="opacity:1;fill:#ffffff;fill-opacity:1;fill-rule:evenodd;stroke:#080707;stroke-width:0.401464"
       id="rect58"
       width="150.32002"
       height="8.2743826"
       x="185.89679"
       y="605.21234" /><rect
       style="opacity:1;fill:#ffffff;fill-opacity:1;fill-rule:evenodd;stroke:#080707;stroke-width:0.401456"
       id="rect59"
       width="149.78397"
       height="8.2448759"
       x="184.37585"
       y="542.65247" /><rect
       style="opacity:1;fill:#ffffff;fill-opacity:1;fill-rule:evenodd;stroke:#080707;stroke-width:0.425205"
       id="rect60"
       width="146.43748"
       height="8.3668404"
       x="336.88739"
       y="605.2243" /><rect
       style="opacity:1;fill:#ffffff;fill-opacity:1;fill-rule:evenodd;stroke:#080707;stroke-width:0.389329"
       id="rect61"
       width="199.06383"
       height="8.4773321"
       x="484.16611"
       y="605.18182" /><rect
       style="opacity:1;fill:#ffffff;fill-opacity:1;fill-rule:evenodd;stroke:#080707;stroke-width:0.408373"
       id="rect62"
       width="73.720261"
       height="8.0010996"
       x="91.950806"
       y="-912.03296"
       transform="rotate(120.07504)" /><rect
       style="opacity:1;fill:#ffffff;fill-opacity:1;fill-rule:evenodd;stroke:#080707;stroke-width:0.425205"
       id="rect63"
       width="146.43752"
       height="8.3721428"
       x="334.90286"
       y="542.55597" /><rect
       style="opacity:1;fill:#ffffff;fill-opacity:1;fill-rule:evenodd;stroke:#080707;stroke-width:0.425205"
       id="rect64"
       width="194.95764"
       height="8.3721523"
       x="482.08118"
       y="542.64978" /><rect
       style="opacity:1;fill:#ffffff;fill-opacity:1;fill-rule:evenodd;stroke:#080707;stroke-width:0.408373"
       id="rect65"
       width="113.14983"
       height="8.0096436"
       x="1.2624501"
       y="-875.3775"
       transform="rotate(120.07504)" /><rect
       style="opacity:1;fill:#ffffff;fill-opacity:1;fill-rule:evenodd;stroke:#080707;stroke-width:0.408373"
       id="rect66"
       width="132.95689"
       height="8.0010996"
       x="752.54852"
       y="522.88959" /><rect
       style="opacity:1;fill:#ffffff;fill-opacity:1;fill-rule:evenodd;stroke:#080707;stroke-width:0.440474"
       id="rect67"
       width="103.52654"
       height="8.0979195"
       x="764.44458"
       y="427.19611" /><rect
       style="opacity:1;fill:#ffffff;fill-opacity:1;fill-rule:evenodd;stroke:#080707;stroke-width:0.414634"
       id="rect68"
       width="51.794292"
       height="8.1237535"
       x="868.83508"
       y="427.25732" /><rect
       style="opacity:1;fill:#ffffff;fill-opacity:1;fill-rule:evenodd;stroke:#080707;stroke-width:0.421205"
       id="rect69"
       width="44.185673"
       height="8.1171846"
       x="825.71552"
       y="445.16769" /><rect
       style="opacity:1;fill:#ffffff;fill-opacity:1;fill-rule:evenodd;stroke:#080707;stroke-width:0.408393"
       id="rect70"
       width="49.392654"
       height="8.1299849"
       x="870.75116"
       y="445.16129" /><rect
       style="opacity:1;fill:#ffffff;fill-opacity:1;fill-rule:evenodd;stroke:#080707;stroke-width:0.414634"
       id="rect71"
       width="51.000713"
       height="8.1237535"
       x="868.91718"
       y="409.58701" /><rect
       style="opacity:1;fill:#ffffff;fill-opacity:1;fill-rule:evenodd;stroke:#080707;stroke-width:0.414634"
       id="rect72"
       width="89.05304"
       height="8.1237535"
       x="779.0838"
       y="409.58701" /><rect
       style="opacity:1;fill:#ffffff;fill-opacity:1;fill-rule:evenodd;stroke:#080707;stroke-width:0.414634"
       id="rect73"
       width="134.74232"
       height="8.1237535"
       x="778.97827"
       y="385.95099" /><rect
       style="opacity:1;fill:#ffffff;fill-opacity:1;fill-rule:evenodd;stroke:#080707;stroke-width:0.414634"
       id="rect74"
       width="209.35475"
       height="8.1237535"
       x="914.47449"
       y="385.80179" /><rect
       style="opacity:1;fill:#ffffff;fill-opacity:1;fill-rule:evenodd;stroke:#080707;stroke-width:0.414634"
       id="rect75"
       width="8.0793867"
       height="8.1237535"
       x="1124.5608"
       y="385.85452" /><rect
       style="opacity:1;fill:#ffffff;fill-opacity:1;fill-rule:evenodd;stroke:#080707;stroke-width:0.414634"
       id="rect76"
       width="31.346043"
       height="8.1237535"
       x="1101.1357"
       y="362.11304" /><rect
       style="opacity:1;fill:#ffffff;fill-opacity:1;fill-rule:evenodd;stroke:#080707;stroke-width:0.421205"
       id="rect77"
       width="16.176199"
       height="8.1171875"
       x="461.45984"
       y="-818.52332"
       transform="rotate(90)" /><rect
       style="opacity:1;fill:#ffffff;fill-opacity:1;fill-rule:evenodd;stroke:#080707;stroke-width:0.421205"
       id="rect78"
       width="6.690011"
       height="8.0654297"
       x="502.38028"
       y="-846.36273"
       transform="rotate(90)" /><rect
       style="opacity:1;fill:#ffffff;fill-opacity:1;fill-rule:evenodd;stroke:#080707;stroke-width:0.421205"
       id="rect79"
       width="11.211316"
       height="8.1171846"
       x="-836.87402"
       y="-594.04584"
       transform="scale(-1)" /><rect
       style="opacity:1;fill:#ffffff;fill-opacity:1;fill-rule:evenodd;stroke:#080707;stroke-width:0.421205"
       id="rect80"
       width="214.43898"
       height="8.1171846"
       x="-1052.0251"
       y="-593.99304"
       transform="scale(-1)" /><rect
       style="opacity:1;fill:#ffffff;fill-opacity:1;fill-rule:evenodd;stroke:#080707;stroke-width:0.421205"
       id="rect81"
       width="145.43008"
       height="8.1171846"
       x="-1198.2729"
       y="-593.99304"
       transform="scale(-1)" /><rect
       style="opacity:1;fill:#ffffff;fill-opacity:1;fill-rule:evenodd;stroke:#080707;stroke-width:0.421205"
       id="rect82"
       width="207.68573"
       height="8.1171846"
       x="-1406.9874"
       y="-593.99304"
       transform="scale(-1)" /><rect
       style="opacity:1;fill:#ffffff;fill-opacity:1;fill-rule:evenodd;stroke:#080707;stroke-width:0.421205"
       id="rect83"
       width="221.618"
       height="8.11724"
       x="-1629.4615"
       y="-594.03033"
       transform="scale(-1)" /><rect
       style="opacity:1;fill:#ffffff;fill-opacity:1;fill-rule:evenodd;stroke:#080707;stroke-width:0.408373"
       id="rect84"
       width="8.9556141"
       height="8.2648935"
       x="1628.8535"
       y="637.3764" /><rect
       style="opacity:1;fill:#ffffff;fill-opacity:1;fill-rule:evenodd;stroke:#080707;stroke-width:0.447567"
       id="rect85"
       width="215.93831"
       height="8.2332144"
       x="-1627.9469"
       y="-645.59003"
       transform="scale(-1)" /><rect
       style="opacity:1;fill:#ffffff;fill-opacity:1;fill-rule:evenodd;stroke:#080707;stroke-width:0.447567"
       id="rect86"
       width="211.87582"
       height="8.2332144"
       x="-1411.1042"
       y="-645.59003"
       transform="scale(-1)" /><rect
       style="opacity:1;fill:#ffffff;fill-opacity:1;fill-rule:evenodd;stroke:#080707;stroke-width:0.447567"
       id="rect87"
       width="89.560188"
       height="8.2332764"
       x="-533.02411"
       y="1183.4607"
       transform="rotate(-90)" /><rect
       style="opacity:1;fill:#ffffff;fill-opacity:1;fill-rule:evenodd;stroke:#080707;stroke-width:0.414634"
       id="rect88"
       width="110.5844"
       height="8.1237535"
       x="1064.4264"
       y="427.17508"
       inkscape:label="PPI_test" /><rect
       style="opacity:1;fill:#ffffff;fill-opacity:1;fill-rule:evenodd;stroke:#080707;stroke-width:0.414634"
       id="rect89"
       width="111.47974"
       height="8.1237535"
       x="1063.9788"
       y="409.56659" /><rect
       style="opacity:1;fill:#ffffff;fill-opacity:1;fill-rule:evenodd;stroke:#080707;stroke-width:0.414634"
       id="rect90"
       width="72.830391"
       height="8.1237535"
       x="990.26172"
       y="409.41733" /><rect
       style="opacity:1;fill:#ffffff;fill-opacity:1;fill-rule:evenodd;stroke:#080707;stroke-width:0.414634"
       id="rect91"
       width="73.11232"
       height="7.9127173"
       x="990.48926"
       y="427.28964" /><rect
       style="opacity:1;fill:#ffffff;fill-opacity:1;fill-rule:evenodd;stroke:#080707;stroke-width:0.414634"
       id="rect92"
       width="99.541679"
       height="8.1237535"
       x="990.56012"
       y="446.12662" /><rect
       style="opacity:1;fill:#ffffff;fill-opacity:1;fill-rule:evenodd;stroke:#080707;stroke-width:0.414634"
       id="rect93"
       width="22.485518"
       height="8.1237793"
       x="492.68811"
       y="-1106.1007"
       transform="rotate(90)" /><rect
       style="opacity:1;fill:#ffffff;fill-opacity:1;fill-rule:evenodd;stroke:#080707;stroke-width:0.408353"
       id="rect94"
       width="9.1204138"
       height="8.0006962"
       x="-1090.9901"
       y="-530.92761"
       transform="scale(-1)" /><rect
       style="opacity:1;fill:#ffffff;fill-opacity:1;fill-rule:evenodd;stroke:#080707;stroke-width:0.408353"
       id="rect95"
       width="195.17383"
       height="8.0006962"
       x="886.19232"
       y="522.90497" /><rect
       style="opacity:1;fill:#ffffff;fill-opacity:1;fill-rule:evenodd;stroke:#080707;stroke-width:0.447567"
       id="rect96"
       width="99.859268"
       height="8.2332697"
       x="-401.50687"
       y="1183.8827"
       transform="rotate(-90)" /><rect
       style="opacity:1;fill:#ffffff;fill-opacity:1;fill-rule:evenodd;stroke:#080707;stroke-width:0.447567"
       id="rect97"
       width="140.29924"
       height="8.2332697"
       x="1035.3741"
       y="286.68225" /><rect
       style="opacity:1;fill:#ffffff;fill-opacity:1;fill-rule:evenodd;stroke:#080707;stroke-width:0.447567"
       id="rect98"
       width="222.82059"
       height="8.2332697"
       x="811.53687"
       y="286.68225" /><rect
       style="opacity:1;fill:#ffffff;fill-opacity:1;fill-rule:evenodd;stroke:#080707;stroke-width:0.408373"
       id="rect99"
       width="8.4340248"
       height="8.1869574"
       x="-810.90991"
       y="-294.83722"
       transform="scale(-1)" /><rect
       style="opacity:1;fill:#ffffff;fill-opacity:1;fill-rule:evenodd;stroke:#080707;stroke-width:0.408373"
       id="rect100"
       width="14.872169"
       height="8.2615786"
       x="-817.40442"
       y="-318.44821"
       transform="scale(-1)" /><rect
       style="opacity:1;fill:#ffffff;fill-opacity:1;fill-rule:evenodd;stroke:#080707;stroke-width:0.408373"
       id="rect101"
       width="11.17149"
       height="8.2648993"
       x="1630.3308"
       y="585.98914" /><path
       style="fill:#ffffff;fill-rule:evenodd;stroke:#080707;stroke-width:0.325241"
       d="m 763.38762,435.2024 -3.25674,1.76107 -2.91302,2.45792 -7.07042,-4.1887 1.92419,-2.31648 2.71374,-2.78197 4.06688,-2.6374 4.71598,-0.40112 z"
       id="path5"
       sodipodi:nodetypes="ccccccccc" /><path
       style="fill:#ffffff;fill-rule:evenodd;stroke:#080707;stroke-width:0.325241"
       d="m 824.64381,453.53069 -4.62849,3.02728 -1.59404,3.67138 -7.88818,0.005 0.0249,-6.1415 3.32047,-5.60458 4.06689,-2.6374 6.79995,-0.61215 z"
       id="path6"
       sodipodi:nodetypes="ccccccccc" /><path
       style="fill:#ffffff;fill-rule:evenodd;stroke:#080707;stroke-width:0.425667"
       d="m 516.30149,459.92844 c 0,0 1.84587,0.26989 4.08271,-1.96909 2.23685,-2.23897 2.26552,-4.58929 2.26552,-4.58929 l 7.70656,-0.0403 0.0164,5.10945 c 0,0 -0.90021,2.85676 -3.17029,5.81959 -2.27009,2.96284 -4.87753,4.16293 -4.87753,4.16293 l -5.88498,0.0911 z"
       id="path7"
       sodipodi:nodetypes="czccczccc" /><path
       style="fill:#ffffff;fill-rule:evenodd;stroke:#080707;stroke-width:0.425667"
       d="m 495.59967,438.42308 c 0,0 2.48008,-0.51355 4.71692,-2.75253 2.23685,-2.23897 2.41474,-4.88774 2.41474,-4.88774 l 8.20965,0.0717 -0.30019,5.10945 c 0,0 -1.38518,3.6775 -3.65526,6.64033 -2.27009,2.96284 -5.8848,4.12562 -5.8848,4.12562 l -5.51193,0.0911 z"
       id="path8"
       sodipodi:nodetypes="czccczccc" /><path
       style="fill:#ffffff;fill-rule:evenodd;stroke:#080707;stroke-width:0.368362"
       d="m 538.13062,368.27281 c 0,0 -3.06948,0.7082 -5.00519,2.64576 -1.93571,1.93754 -2.37983,4.01868 -2.37983,4.01868 l -7.80652,-0.009 0.2233,-5.21298 c 0,0 1.48889,-2.86587 3.45335,-5.42982 1.96449,-2.56396 5.43549,-4.28245 5.43549,-4.28245 l 6.19437,-0.18429 z"
       id="path9"
       sodipodi:nodetypes="czccczccc" /><path
       style="fill:#ffffff;fill-rule:evenodd;stroke:#080707;stroke-width:0.368362"
       d="m 517.46297,352.71611 c 0,0 -2.50988,0.89474 -4.44559,2.83229 -1.93571,1.93755 -2.37983,4.01868 -2.37983,4.01868 l -7.80653,-0.009 0.22331,-5.21298 c 0,0 1.48888,-2.86587 3.45334,-5.42983 1.96449,-2.56396 5.4355,-4.28244 5.4355,-4.28244 l 5.74669,-0.14699 z"
       id="path10"
       sodipodi:nodetypes="czccczccc" /><path
       style="fill:#ffffff;fill-rule:evenodd;stroke:#080707;stroke-width:0.368362"
       d="m 677.80685,542.57719 c 0,0 3.91636,0.62277 8.73882,-2.27326 4.82246,-2.89603 5.87683,-6.02539 5.87683,-6.02539 l 7.12391,3.93785 -4.04011,5.74445 c 0,0 -0.93492,1.38862 -3.7699,3.5305 -2.83499,2.14189 -7.30844,3.41193 -7.30844,3.41193 l -6.58608,0.16564 z"
       id="path11"
       sodipodi:nodetypes="czccczccc" /><path
       style="fill:#ffffff;fill-rule:evenodd;stroke:#080707;stroke-width:0.368362"
       d="m 683.97965,605.25485 c 0,0 3.76338,-0.086 8.79103,-2.77689 5.02764,-2.69085 6.03565,-5.41625 6.03565,-5.41625 l 7.15029,3.93786 -3.90821,5.63894 c 0,0 -0.93492,1.38861 -3.7699,3.5305 -2.83498,2.14188 -7.30844,3.41192 -7.30844,3.41192 l -6.95539,0.0865 z"
       id="path12"
       sodipodi:nodetypes="czccczccc" /><path
       style="fill:#ffffff;fill-rule:evenodd;stroke:#080707;stroke-width:0.368362"
       d="m 678.81284,665.88729 c 0,0 3.63282,-0.29119 8.66047,-2.98207 5.02764,-2.69085 6.03565,-5.41625 6.03565,-5.41625 l 7.15028,3.93786 -3.90821,5.63894 c 0,0 -0.93491,1.38861 -3.7699,3.5305 -2.83498,2.14188 -7.30844,3.41192 -7.30844,3.41192 l -6.95539,0.0865 z"
       id="path13"
       sodipodi:nodetypes="czccczccc" /><path
       style="fill:#ffffff;fill-rule:evenodd;stroke:#080707;stroke-width:0.368362"
       d="m 776.07819,546.68606 c 0,0 -4.08049,0.10466 -8.54854,3.42974 -4.46806,3.32509 -6.02925,6.02673 -6.02925,6.02673 l -7.04477,-4.17527 3.90821,-5.63894 c 0,0 0.93491,-1.38861 3.7699,-3.5305 2.83498,-2.14188 7.56958,-3.82229 7.56958,-3.82229 l 6.69425,-0.19838 z"
       id="path14"
       sodipodi:nodetypes="czccczccc" /><path
       style="fill:#ffffff;fill-rule:evenodd;stroke:#080707;stroke-width:0.282708"
       d="m 818.25086,578.48604 c 0,0 1.64718,3.99424 3.45297,5.55804 1.8058,1.56381 3.28233,1.97855 3.28233,1.97855 l -0.10799,7.98081 -5.14848,-0.12687 c 0,0 -3.78908,-2.24708 -5.50752,-4.49747 -1.71845,-2.25039 -3.30658,-5.73485 -3.30658,-5.73485 l -0.15225,-5.13766 z"
       id="path15"
       sodipodi:nodetypes="czccczccc" /><path
       style="fill:#ffffff;fill-rule:evenodd;stroke:#080707;stroke-width:0.282708"
       d="m 751.77111,530.93677 c 0,0 -4.54821,0.53923 -6.11201,2.34502 -1.56381,1.8058 -2.21596,2.83389 -2.21596,2.83389 l -3.4963,-1.9018 -3.56626,-2.14121 c 0,0 2.45811,-3.81547 4.36557,-5.69219 1.90746,-1.87673 5.76123,-3.6495 5.76123,-3.6495 l 5.29593,0.11154 z"
       id="path16"
       sodipodi:nodetypes="czccczccc" /><path
       style="fill:#ffffff;fill-rule:evenodd;stroke:#080707;stroke-width:0.444058"
       d="m 1091.699,523.03035 -0.037,7.79701 c 8.0127,0.36568 15.5877,-4.8484 14.3255,-14.84788 l -7.9835,5e-5 c -0.5286,3.28559 1.0146,2.87121 -4.0291,6.56588 0.1493,0.0746 -2.2758,0.48494 -2.2758,0.48494 z"
       id="path18"
       sodipodi:nodetypes="cccccc" /><path
       style="fill:#ffffff;fill-rule:evenodd;stroke:#080707;stroke-width:0.444058"
       d="m 1097.9326,461.46782 8.008,0.0107 c 0.3657,-8.01266 -4.822,-16.4582 -14.8215,-15.19603 l 1e-4,7.98353 c 3.2856,0.52862 4.4778,1.10597 6.5658,5.24254 0.074,-0.0174 0.2474,1.95926 0.2474,1.95926 z"
       id="path1"
       sodipodi:nodetypes="ccccccc" /><path
       style="fill:#ffffff;fill-rule:evenodd;stroke:#080707;stroke-width:0.444058"
       d="m 1150.5563,496.26283 8.008,0.0107 c 0.4621,-8.2134 -6.2052,-13.57722 -15.1645,-14.61567 l 10e-5,8.03629 c 3.2856,0.52862 4.8208,0.47285 6.9088,4.60942 0.074,-0.0174 0.2473,1.95926 0.2473,1.95926 z"
       id="path2"
       sodipodi:nodetypes="ccccccc" /><path
       style="fill:#ffffff;fill-rule:evenodd;stroke:#080707;stroke-width:0.444058"
       d="m 1183.4528,442.79669 8.008,0.0107 c 1.7141,-10.54089 -14.7181,-16.58719 -15.6867,-15.51103 l 0.056,8.0363 c 3.2856,0.52861 5.2871,1.3682 7.3751,5.50477 0.074,-0.0174 0.2473,1.95926 0.2473,1.95926 z"
       id="path3"
       sodipodi:nodetypes="ccccccc" /><path
       style="fill:#ffffff;fill-rule:evenodd;stroke:#080707;stroke-width:0.444058"
       d="m 1176.5468,409.66299 -0.011,8.00796 c 10.7315,1.86656 16.8887,-14.47698 15.5111,-15.68671 l -8.0364,0.0561 c -0.685,3.24948 -2.3782,5.05398 -5.5047,7.37505 0.017,0.0742 -1.9593,0.24735 -1.9593,0.24735 z"
       id="path4"
       sodipodi:nodetypes="ccccccc" /><path
       style="fill:#ffffff;fill-rule:evenodd;stroke:#080707;stroke-width:0.444058"
       d="m 1324.4512,512.04378 8.0591,0.002 c 1.3039,12.07634 2.2866,10.19243 6.8923,10.53107 l 0.038,7.82009 c -6.7792,-0.11789 -15.9981,1.62026 -14.9892,-18.35271 z"
       id="path19"
       sodipodi:nodetypes="cccccc" /><path
       style="fill:#ffffff;fill-rule:evenodd;stroke:#080707;stroke-width:0.444058"
       d="m 1351.754,499.59266 8.0591,0.002 c 1.1314,4.83709 4.566,5.7149 9.186,6.1534 l -0.087,7.88753 c -7.2449,-0.0797 -17.9615,0.23669 -17.3961,-14.06886 z"
       id="path20"
       sodipodi:nodetypes="cccccc" /><path
       style="fill:#ffffff;fill-rule:evenodd;stroke:#080707;stroke-width:0.444058"
       d="m 1183.6343,631.05996 8.0592,0.002 c 1.18,4.48186 2.0356,5.4406 6.6498,6.29681 l 0.019,8.19315 c -10.8367,-0.94049 -14.287,-0.55502 -14.728,-14.49151 z"
       id="path21"
       sodipodi:nodetypes="cccccc" /><path
       style="fill:#ffffff;fill-rule:evenodd;stroke:#080707;stroke-width:0.444058"
       d="m 1150.4489,681.2865 8.2174,-0.0509 c 1.18,4.48186 2.2203,6.4694 6.8345,7.32561 0,0 0.019,9.09006 -0.01,8.40419 -10.8367,-0.94049 -14.6035,-1.7421 -15.0445,-15.67859 z"
       id="path22"
       sodipodi:nodetypes="cccccc" /><path
       style="fill:#ffffff;fill-rule:evenodd;stroke:#080707;stroke-width:0.444058"
       d="m 1359.3298,252.7782 -7.8349,0.0527 c -1.1314,-4.83715 -1.9808,-7.02074 -6.6008,-7.45919 l 0.087,-7.88757 c 7.2449,0.0796 14.9147,0.87125 14.3493,15.17677 z"
       id="path23"
       sodipodi:nodetypes="cccccc" /><path
       style="fill:#ffffff;fill-rule:evenodd;stroke:#080707;stroke-width:0.444058"
       d="m 1332.2861,277.64016 -7.8745,0.0264 c -1.18,-4.48181 -2.2466,-5.59883 -6.8609,-6.45502 l -0.045,-8.43059 c 10.8367,0.94048 14.3662,0.92434 14.8072,14.86086 z"
       id="path24"
       sodipodi:nodetypes="cccccc" /><path
       style="fill:#ffffff;fill-rule:evenodd;stroke:#080707;stroke-width:0.444058"
       d="m 1176.4119,294.93551 -0.035,-8.16572 c -0.01,-0.40851 16.3567,1.73629 15.6193,14.10832 l -8.0081,0.0645 c -0.8363,-3.8613 -3.155,-5.94183 -7.5764,-6.00711 z"
       id="path25"
       sodipodi:nodetypes="cccccc" /><rect
       style="opacity:1;fill:#ffffff;fill-opacity:1;fill-rule:evenodd;stroke:#080707;stroke-width:0.408572"
       id="rect102"
       width="7.8271379"
       height="8.3143578"
       x="1126.989"
       y="328.2442" /><path
       style="fill:#ffffff;fill-rule:evenodd;stroke:#080707;stroke-width:0.444058"
       d="m 1126.9409,337.10414 7.718,0.002 c 0.8981,1.34328 -1.8447,17.30278 -14.7798,15.58202 l -0.01,-8.3065 c 3.2976,-1.37024 6.6691,-3.21008 7.1076,-7.27801 z"
       id="path102"
       sodipodi:nodetypes="cccccc" /><path
       style="fill:#ffffff;fill-rule:evenodd;stroke:#080707;stroke-width:0.444058"
       d="m 1119.8222,320.56384 -0.056,-8.2776 c 1.0934,-0.0658 15.6545,2.46783 15.0038,15.28341 l -7.8215,0.009 c -1.0825,-3.28017 -3.2499,-6.17489 -7.1287,-7.01436 z"
       id="path103"
       sodipodi:nodetypes="cccccc" /><path
       style="fill:#ffffff;fill-rule:evenodd;stroke:#080707;stroke-width:0.444058"
       d="m 1133.1756,362.11392 c 0,0 4.5792,0.84004 6.5298,1.79433 1.9506,0.95429 3.5148,2.14212 5.0121,3.74591 1.4974,1.60379 2.7732,3.44193 3.4661,5.82214 0.693,2.38021 0.5593,5.64491 0.1154,8.02255 -0.4438,2.37763 -1.1062,4.42988 -2.2094,6.04542 -1.1032,1.61555 -2.4161,2.87168 -3.5743,3.77336 -1.158,0.90168 -1.8889,1.25068 -3.2251,1.7978 -1.3363,0.5471 -5.0186,0.86544 -5.0186,0.86544 l -0.9034,0.0933 0.047,-8.26076 c 0,0 2.2666,-1.46666 3.2241,-2.282 0.9576,-0.81533 1.834,-1.77195 2.3028,-2.98859 0.4687,-1.21663 0.4094,-2.9083 0.3198,-4.0374 -0.09,-1.12911 -0.1239,-1.74918 -0.6459,-2.66884 -0.5221,-0.91966 -2.4387,-2.47356 -2.5692,-2.5202 -0.1306,-0.0467 -2.8283,-1.0738 -2.8283,-1.0738 z"
       id="path104"
       sodipodi:nodetypes="czzzzzzzccczzzzzcc" /><path
       style="fill:#ffffff;fill-rule:evenodd;stroke:#080707;stroke-width:0.444058"
       d="m 801.65579,286.69311 c 0,0 -4.22309,0.68176 -6.17369,1.63605 -1.95059,0.95429 -3.51483,2.14212 -5.01214,3.74591 -1.49732,1.60379 -2.77315,3.44193 -3.46609,5.82214 -0.69295,2.38021 -0.55928,5.64492 -0.1154,8.02255 0.44387,2.37763 1.10625,4.42988 2.20943,6.04543 1.10318,1.61554 2.41609,2.87167 3.57425,3.77335 1.15808,0.90168 1.88892,1.25069 3.22516,1.7978 1.33633,0.5471 5.01857,0.86544 5.01857,0.86544 l 0.9034,0.0933 -0.047,-8.26076 c 0,0 -2.26668,-1.46666 -3.22416,-2.282 -0.95757,-0.81533 -1.83402,-1.77195 -2.30277,-2.98858 -0.46875,-1.21664 -0.40942,-2.90831 -0.31979,-4.03741 0.0895,-1.1291 0.1239,-1.74917 0.64592,-2.66883 0.52201,-0.91967 1.55195,-1.88432 2.5692,-2.5202 0.76137,-0.47595 2.53804,-0.90234 2.53804,-0.90234 z"
       id="path107"
       sodipodi:nodetypes="czzzzzzzccczzzzacc" /><path
       style="fill:#ffffff;fill-rule:evenodd;stroke:#080707;stroke-width:0.444058"
       d="m 800.91716,237.41622 c 0,0 -4.22309,0.68177 -6.17368,1.63606 -1.9506,0.95429 -3.51484,2.14212 -5.01215,3.7459 -1.49732,1.60379 -2.77314,3.44194 -3.46609,5.82214 -0.69295,2.38021 -0.55928,5.64492 -0.1154,8.02255 0.44388,2.37763 1.10625,4.42988 2.20943,6.04543 1.10318,1.61554 2.41609,2.87167 3.57426,3.77335 1.15807,0.90168 1.88891,1.25069 3.22515,1.7978 1.33634,0.54711 5.01857,0.86544 5.01857,0.86544 l 0.9034,0.0933 -0.047,-8.26075 c 0,0 -2.26668,-1.46667 -3.22416,-2.282 -0.95757,-0.81533 -1.83402,-1.77195 -2.30277,-2.98859 -0.46874,-1.21663 -0.40941,-2.9083 -0.31979,-4.0374 0.0895,-1.12911 0.1239,-1.74918 0.64592,-2.66884 0.52201,-0.91967 1.55196,-1.88431 2.5692,-2.5202 0.76137,-0.47595 2.53804,-0.90234 2.53804,-0.90234 z"
       id="path110"
       sodipodi:nodetypes="czzzzzzzccczzzzacc" /><path
       style="fill:#ffffff;fill-rule:evenodd;stroke:#080707;stroke-width:0.444058"
       d="m 778.23058,385.98043 c 0,0 -4.22309,0.68177 -6.17368,1.63606 -1.9506,0.95429 -3.51484,2.14212 -5.01215,3.74591 -1.49732,1.60378 -2.77314,3.44193 -3.46609,5.82214 -0.69295,2.38021 -0.55928,5.64491 -0.1154,8.02254 0.44388,2.37764 1.10625,4.42989 2.20943,6.04543 1.10318,1.61555 2.41609,2.87168 3.57425,3.77336 1.15808,0.90168 1.88892,1.25068 3.22516,1.7978 1.33633,0.5471 5.01857,0.86544 5.01857,0.86544 l 0.9034,0.0933 -0.047,-8.26076 c 0,0 -2.26668,-1.46666 -3.22416,-2.282 -0.95757,-0.81533 -1.83402,-1.77195 -2.30277,-2.98859 -0.46874,-1.21663 -0.40942,-2.9083 -0.31979,-4.0374 0.0895,-1.12911 0.1239,-1.74918 0.64592,-2.66884 0.52201,-0.91967 1.55195,-1.88431 2.5692,-2.5202 0.76137,-0.47594 2.53804,-0.90234 2.53804,-0.90234 z"
       id="path111"
       sodipodi:nodetypes="czzzzzzzccczzzzacc" /><rect
       style="opacity:1;fill:#ffffff;fill-opacity:1;fill-rule:evenodd;stroke:#080707;stroke-width:0.447569"
       id="rect103"
       width="34.858364"
       height="8.1210938"
       x="738.70807"
       y="481.56406" /><rect
       style="opacity:1;fill:#ffffff;fill-opacity:1;fill-rule:evenodd;stroke:#080707;stroke-width:0.421205"
       id="rect108"
       width="26.754015"
       height="8.0654297"
       x="492.89948"
       y="-818.47156"
       transform="rotate(90)" /><rect
       style="opacity:1;fill:#ffffff;fill-opacity:1;fill-rule:evenodd;stroke:#080707;stroke-width:0.421205"
       id="rect109"
       width="26.493649"
       height="8.0654297"
       x="550.93091"
       y="-818.47156"
       transform="rotate(90)" /><rect
       style="opacity:1;fill:#ffffff;fill-opacity:1;fill-rule:evenodd;stroke:#080707;stroke-width:0.414634"
       id="rect110"
       width="16.770859"
       height="8.1237793"
       x="462.50629"
       y="-1106.0093"
       transform="rotate(90)" /><rect
       style="opacity:1;fill:#ffffff;fill-opacity:1;fill-rule:evenodd;stroke:#080707;stroke-width:0.447567"
       id="rect114"
       width="31.025803"
       height="8.0167236"
       x="551.39752"
       y="-1158.6322"
       transform="rotate(90)"
       inkscape:label="PPI_hello" /><rect
       style="opacity:1;fill:#ffffff;fill-opacity:1;fill-rule:evenodd;stroke:#080707;stroke-width:0.447567"
       id="rect116"
       width="30.59428"
       height="8.2332764"
       x="-630.04938"
       y="1183.5709"
       transform="rotate(-90)" /><rect
       style="opacity:1;fill:#ffffff;fill-opacity:1;fill-rule:evenodd;stroke:#080707;stroke-width:0.447567"
       id="rect117"
       width="29.947758"
       height="8.2332764"
       x="-581.23975"
       y="1182.7238"
       transform="rotate(-90)"
       inkscape:label="CON_rect" /></g></svg>
